<svg width="21" height="21" viewBox="0 0 21 21" fill="none" xmlns="http://www.w3.org/2000/svg">
<g clip-path="url(#clip0_118_2)">
<path fill-rule="evenodd" clip-rule="evenodd" d="M10.4687 0C4.67979 0 0 4.71429 0 10.5465C0 15.2085 2.9985 19.1548 7.15821 20.5515C7.67829 20.6565 7.86879 20.3246 7.86879 20.0454C7.86879 19.8009 7.85164 18.9628 7.85164 18.0896C4.9395 18.7183 4.33307 16.8324 4.33307 16.8324C3.86507 15.6101 3.17164 15.2959 3.17164 15.2959C2.2185 14.6499 3.24107 14.6499 3.24107 14.6499C4.29836 14.7197 4.85314 15.7324 4.85314 15.7324C5.78893 17.3387 7.29686 16.8849 7.9035 16.6054C7.99007 15.9244 8.26757 15.453 8.56221 15.1911C6.23957 14.9466 3.79586 14.0387 3.79586 9.98764C3.79586 8.83521 4.21157 7.89236 4.87029 7.15907C4.76636 6.89721 4.40229 5.81443 4.97443 4.36521C4.97443 4.36521 5.85836 4.08579 7.85143 5.44779C8.70473 5.21693 9.58473 5.09949 10.4687 5.0985C11.3526 5.0985 12.2537 5.22086 13.0858 5.44779C15.0791 4.08579 15.963 4.36521 15.963 4.36521C16.5351 5.81443 16.1709 6.89721 16.0669 7.15907C16.743 7.89236 17.1416 8.83521 17.1416 9.98764C17.1416 14.0387 14.6979 14.9291 12.3579 15.1911C12.7393 15.5229 13.0684 16.1514 13.0684 17.1467C13.0684 18.561 13.0513 19.6961 13.0513 20.0451C13.0513 20.3246 13.242 20.6565 13.7619 20.5517C17.9216 19.1546 20.9201 15.2085 20.9201 10.5465C20.9372 4.71429 16.2403 0 10.4687 0Z" fill="#24292F"/>
</g>
<defs>
<clipPath id="clip0_118_2">
<rect width="21" height="20.5714" fill="white"/>
</clipPath>
</defs>
</svg>
