<svg width="10" height="10" viewBox="0 0 10 10" fill="none" xmlns="http://www.w3.org/2000/svg">
<g clip-path="url(#clip0_118_2)">
<path fill-rule="evenodd" clip-rule="evenodd" d="M4.9851 0C2.22847 0 0 2.2449 0 5.02214C0 7.24214 1.42786 9.12133 3.40867 9.78643C3.65633 9.83643 3.74704 9.67837 3.74704 9.54541C3.74704 9.42898 3.73888 9.0299 3.73888 8.61408C2.35214 8.91347 2.06337 8.01541 2.06337 8.01541C1.84051 7.43337 1.51031 7.28377 1.51031 7.28377C1.05643 6.97612 1.54337 6.97612 1.54337 6.97612C2.04684 7.00939 2.31102 7.49163 2.31102 7.49163C2.75663 8.25653 3.47469 8.04041 3.76357 7.90735C3.8048 7.58306 3.93694 7.35857 4.07724 7.23388C2.97122 7.11745 1.80755 6.6851 1.80755 4.75602C1.80755 4.20724 2.00551 3.75827 2.31918 3.40908C2.26969 3.28439 2.09633 2.76878 2.36878 2.07867C2.36878 2.07867 2.78969 1.94561 3.73878 2.59418C4.14511 2.48425 4.56416 2.42833 4.9851 2.42786C5.40602 2.42786 5.8351 2.48612 6.23133 2.59418C7.18051 1.94561 7.60143 2.07867 7.60143 2.07867C7.87388 2.76878 7.70041 3.28439 7.65092 3.40908C7.97286 3.75827 8.16265 4.20724 8.16265 4.75602C8.16265 6.6851 6.99898 7.10908 5.88469 7.23388C6.06633 7.39184 6.22306 7.69112 6.22306 8.1651C6.22306 8.83857 6.2149 9.37908 6.2149 9.54531C6.2149 9.67837 6.30571 9.83643 6.55327 9.78653C8.53408 9.12122 9.96194 7.24214 9.96194 5.02214C9.9701 2.2449 7.73347 0 4.9851 0Z" fill="#24292F"/>
</g>
<defs>
<clipPath id="clip0_118_2">
<rect width="10" height="9.79592" fill="white"/>
</clipPath>
</defs>
</svg>
